<svg width="8" height="15" viewBox="0 0 8 15" fill="none" xmlns="http://www.w3.org/2000/svg">
<path d="M1.58121 14.7125C1.409 14.8985 1.18982 15 0.931507 15C0.414873 15 0 14.5603 0 14.0023C0 13.7232 0.10959 13.4696 0.289629 13.2751L5.76908 7.49154L0.289629 1.72492C0.10959 1.53044 0 1.26832 0 0.997745C0 0.439684 0.414873 0 0.931507 0C1.18982 0 1.409 0.101466 1.58121 0.287486L7.67123 6.71364C7.89041 6.93348 7.99217 7.20406 8 7.5C8 7.79594 7.89041 8.04961 7.67123 8.2779L1.58121 14.7125Z" fill="#4F4F4F"/>
</svg>
