<svg width="10" height="18" viewBox="0 0 10 18" fill="none" xmlns="http://www.w3.org/2000/svg">
<path d="M8.02348 17.655C8.23875 17.8782 8.51272 18 8.83562 18C9.48141 18 10 17.4724 10 16.8027C10 16.4679 9.86301 16.1635 9.63796 15.9301L2.78865 8.98985L9.63796 2.0699C9.86301 1.83653 10 1.52198 10 1.19729C10 0.527621 9.48141 0 8.83562 0C8.51272 0 8.23875 0.121759 8.02348 0.344983L0.410959 8.05637C0.136986 8.32018 0.00978474 8.64487 0 9C0 9.35513 0.136986 9.65953 0.410959 9.93348L8.02348 17.655Z" fill="#4F4F4F"/>
</svg>
