<svg width="46" height="50" viewBox="0 0 46 50" fill="none" xmlns="http://www.w3.org/2000/svg">
<path d="M44.852 31.3463L40.2088 26.7077V20.5628C40.2035 16.3163 38.6222 12.2226 35.7708 9.07333C32.9194 5.92401 29.0003 3.94281 24.7715 3.51282V0H21.3409V3.51282C17.1121 3.94281 13.193 5.92401 10.3416 9.07333C7.49017 12.2226 5.90891 16.3163 5.90359 20.5628V26.7077L1.26038 31.3463C0.938688 31.6676 0.75791 32.1034 0.757812 32.5578V37.6986C0.757813 38.153 0.938527 38.5889 1.2602 38.9102C1.58187 39.2316 2.01816 39.4121 2.47307 39.4121H14.4799V41.1257C14.4799 43.398 15.3835 45.5773 16.9918 47.1841C18.6002 48.7909 20.7816 49.6936 23.0562 49.6936C25.3308 49.6936 27.5122 48.7909 29.1206 47.1841C30.7289 45.5773 31.6325 43.398 31.6325 41.1257V39.4121H43.6393C44.0942 39.4121 44.5305 39.2316 44.8522 38.9102C45.1739 38.5889 45.3546 38.153 45.3546 37.6986V32.5578C45.3545 32.1034 45.1737 31.6676 44.852 31.3463ZM28.202 41.1257C28.202 42.4891 27.6598 43.7967 26.6948 44.7607C25.7298 45.7248 24.4209 46.2664 23.0562 46.2664C21.6915 46.2664 20.3826 45.7248 19.4176 44.7607C18.4526 43.7967 17.9104 42.4891 17.9104 41.1257V39.4121H28.202V41.1257Z" fill="#576F72"/>
</svg>
