<svg width="32" height="33" viewBox="0 0 32 33" fill="none" xmlns="http://www.w3.org/2000/svg">
<path d="M15.9718 -7.62939e-05L2.90381 14.0655V30.9442C2.90381 31.3172 3.05678 31.6749 3.32909 31.9387C3.60139 32.2025 3.97071 32.3507 4.3558 32.3507H27.5877C27.9728 32.3507 28.3421 32.2025 28.6144 31.9387C28.8867 31.6749 29.0397 31.3172 29.0397 30.9442V14.0655L15.9718 -7.62939e-05Z" fill="#4F4F4F"/>
<path d="M15.9715 19.6918C18.3772 19.6918 20.3274 17.8026 20.3274 15.4721C20.3274 13.1417 18.3772 11.2524 15.9715 11.2524C13.5657 11.2524 11.6155 13.1417 11.6155 15.4721C11.6155 17.8026 13.5657 19.6918 15.9715 19.6918Z" fill="white"/>
</svg>
