<svg width="27" height="27" viewBox="0 0 27 27" fill="none" xmlns="http://www.w3.org/2000/svg">
<path d="M13.6069 22.3357H25.2358C25.5785 22.3357 25.9072 22.2146 26.1495 21.999C26.3918 21.7835 26.5279 21.4912 26.5279 21.1864V18.7385C26.5346 18.4713 26.4363 18.2103 26.25 18.0006C26.0637 17.7908 25.801 17.6454 25.5072 17.5893C22.5353 16.8308 21.941 13.6704 21.3595 7.36108C21.0365 3.91337 18.7753 0.465668 13.6069 0.465668C8.43848 0.465668 6.1773 3.91337 5.85428 7.36108C5.27283 13.6704 4.67847 16.8308 1.70663 17.5893C1.41277 17.6454 1.15007 17.7908 0.963758 18.0006C0.777448 18.2103 0.679181 18.4713 0.685867 18.7385V21.1864C0.685867 21.4912 0.821998 21.7835 1.06431 21.999C1.30663 22.2146 1.63528 22.3357 1.97797 22.3357H13.6069Z" fill="#535353"/>
<path d="M13.6067 26.9326C12.9213 26.9326 12.264 26.6904 11.7794 26.2593C11.2947 25.8283 11.0225 25.2437 11.0225 24.6341V22.3356H16.1909V24.6341C16.1909 25.2437 15.9186 25.8283 15.434 26.2593C14.9493 26.6904 14.292 26.9326 13.6067 26.9326Z" fill="#535353"/>
</svg>
