<svg width="23" height="23" viewBox="0 0 23 23" fill="none" xmlns="http://www.w3.org/2000/svg">
<path fill-rule="evenodd" clip-rule="evenodd" d="M15.538 8.37679C15.538 9.47571 15.1015 10.5296 14.3244 11.3067C13.5473 12.0837 12.4934 12.5203 11.3945 12.5203C10.2956 12.5203 9.24169 12.0837 8.46464 11.3067C7.68758 10.5296 7.25104 9.47571 7.25104 8.37679C7.25104 7.27787 7.68758 6.22396 8.46464 5.4469C9.24169 4.66985 10.2956 4.23331 11.3945 4.23331C12.4934 4.23331 13.5473 4.66985 14.3244 5.4469C15.1015 6.22396 15.538 7.27787 15.538 8.37679ZM13.4663 8.37679C13.4663 8.92625 13.248 9.4532 12.8595 9.84173C12.4709 10.2303 11.944 10.4485 11.3945 10.4485C10.8451 10.4485 10.3181 10.2303 9.92958 9.84173C9.54105 9.4532 9.32278 8.92625 9.32278 8.37679C9.32278 7.82733 9.54105 7.30037 9.92958 6.91185C10.3181 6.52332 10.8451 6.30505 11.3945 6.30505C11.944 6.30505 12.4709 6.52332 12.8595 6.91185C13.248 7.30037 13.4663 7.82733 13.4663 8.37679Z" fill="#535353"/>
<path fill-rule="evenodd" clip-rule="evenodd" d="M11.3946 0.0898438C5.10166 0.0898438 0 5.1915 0 11.4844C0 17.7773 5.10166 22.879 11.3946 22.879C17.6875 22.879 22.7891 17.7773 22.7891 11.4844C22.7891 5.1915 17.6875 0.0898438 11.3946 0.0898438ZM2.07174 11.4844C2.07174 13.6494 2.81032 15.6424 4.04818 17.2252C4.91752 16.0836 6.03902 15.1584 7.32509 14.5219C8.61115 13.8854 10.027 13.5549 11.4619 13.5562C12.8783 13.5548 14.2763 13.8768 15.5494 14.4975C16.8225 15.1183 17.9371 16.0214 18.8083 17.1382C19.7058 15.961 20.3101 14.5871 20.5712 13.13C20.8323 11.6729 20.7427 10.1746 20.3098 8.75902C19.8769 7.34346 19.1131 6.05133 18.0816 4.98955C17.0502 3.92777 15.7807 3.12687 14.3783 2.65311C12.9758 2.17936 11.4808 2.04637 10.0167 2.26514C8.55268 2.48392 7.16179 3.04818 5.95912 3.91122C4.75645 4.77427 3.77659 5.9113 3.1006 7.22823C2.42461 8.54516 2.07193 10.0041 2.07174 11.4844ZM11.3946 20.8072C9.25441 20.8105 7.17886 20.0742 5.51912 18.7231C6.18718 17.7667 7.07638 16.9858 8.11106 16.4469C9.14575 15.9081 10.2953 15.6271 11.4619 15.6279C12.614 15.627 13.7496 15.9009 14.7745 16.427C15.7995 16.9531 16.6841 17.7161 17.355 18.6526C15.6823 20.0476 13.5726 20.8103 11.3946 20.8072Z" fill="#513131"/>
</svg>
